PathFileType	4	(X/Y/Z)	RBDS016static.trc
DataRate	CameraRate	NumFrames	NumMarkers	Units	OrigDataRate	OrigDataStartFrame	OrigNumFrames
150.000000	150.000000	4	48	mm	150.000000	93	150
Frame#	Time	L.Ankle			L.Ankle.Medial			L.ASIS			L.GTR			L.Heel.Bottom			L.Heel.Lateral			L.Heel.Top			L.HF			L.Iliac.Crest			L.Knee			L.Knee.Medial			L.MT1			L.MT2			L.MT5			L.PSIS			L.Shank.Bottom.Lateral			L.Shank.Bottom.Medial			L.Shank.Top.Lateral			L.Shank.Top.Medial			L.Thigh.Bottom.Lateral			L.Thigh.Bottom.Medial			L.Thigh.Top.Lateral			L.Thigh.Top.Medial			L.TT			R.Ankle			R.Ankle.Medial			R.ASIS			R.GTR			R.Heel.Bottom			R.Heel.Lateral			R.Heel.Top			R.HF			R.Iliac.Crest			R.Knee			R.Knee.Medial			R.MT1			R.MT2			R.MT5			R.PSIS			R.Shank.Bottom.Lateral			R.Shank.Bottom.Medial			R.Shank.Top.Lateral			R.Shank.Top.Medial			R.Thigh.Bottom.Lateral			R.Thigh.Bottom.Medial			R.Thigh.Top.Lateral			R.Thigh.Top.Medial			R.TT			
		X1	Y1	Z1	X2	Y2	Z2	X3	Y3	Z3	X4	Y4	Z4	X5	Y5	Z5	X6	Y6	Z6	X7	Y7	Z7	X8	Y8	Z8	X9	Y9	Z9	X10	Y10	Z10	X11	Y11	Z11	X12	Y12	Z12	X13	Y13	Z13	X14	Y14	Z14	X15	Y15	Z15	X16	Y16	Z16	X17	Y17	Z17	X18	Y18	Z18	X19	Y19	Z19	X20	Y20	Z20	X21	Y21	Z21	X22	Y22	Z22	X23	Y23	Z23	X24	Y24	Z24	X25	Y25	Z25	X26	Y26	Z26	X27	Y27	Z27	X28	Y28	Z28	X29	Y29	Z29	X30	Y30	Z30	X31	Y31	Z31	X32	Y32	Z32	X33	Y33	Z33	X34	Y34	Z34	X35	Y35	Z35	X36	Y36	Z36	X37	Y37	Z37	X38	Y38	Z38	X39	Y39	Z39	X40	Y40	Z40	X41	Y41	Z41	X42	Y42	Z42	X43	Y43	Z43	X44	Y44	Z44	X45	Y45	Z45	X46	Y46	Z46	X47	Y47	Z47	X48	Y48	Z48	

94	0.62	722.7740478515625	98.38734436035156	1045.145385742188	732.1605834960938	111.2572555541992	1132.384399414063	859.6734008789063	945.0774536132813	1127.0888671875	783.6487426757813	881.9722900390625	1054.762451171875	645.0006713867188	40.45262908935547	1088.12890625	669.04931640625	62.33879852294922	1047.277221679688	654.348876953125	88.03183746337891	1089.0283203125	754.3729858398438	444.8938293457031	1027.822998046875	774.7203979492188	1007.265014648438	1065.123901367188	757.8634033203125	504.0975036621094	1032.716796875	731.5259399414063	481.2493286132813	1164.726928710938	861.1790771484375	60.58171463012695	1127.39892578125	865.582275390625	70.42592620849609	1089.20361328125	828.0811157226563	52.86185455322266	1021.786865234375	663.7225952148438	967.2944946289063	1184.006103515625	702.67041015625	175.2793426513672	1039.579467773438	674.5669555664063	178.8629150390625	1087.66259765625	695.516845703125	255.0746612548828	1030.048950195313	669.6962280273438	259.2710876464844	1077.723876953125	746.4342651367188	586.7466430664063	1030.026000976563	684.47998046875	592.7576904296875	1068.763427734375	755.392822265625	696.330810546875	1029.277587890625	696.8046264648438	701.658203125	1067.81005859375	802.4035034179688	428.3472595214844	1091.674926757813	714.608154296875	101.1221084594727	1410.872436523438	737.5789794921875	122.5244216918945	1325.985717773438	844.424072265625	949.440185546875	1358.719116210938	764.7976684570313	887.885986328125	1419.457763671875	639.9214477539063	41.41525268554688	1366.132080078125	668.7506713867188	64.85350036621094	1406.461791992188	652.1895141601563	92.21947479248047	1363.439453125	741.8600463867188	450.2485656738281	1429.909790039063	760.021484375	1003.8740234375	1404.204345703125	742.2772216796875	513.6156616210938	1424.830688476563	729.8543090820313	485.6898803710938	1295.355590820313	855.3763427734375	61.32476806640625	1329.249755859375	862.5515747070313	70.76416015625	1371.728759765625	824.7435302734375	48.58737182617188	1438.975341796875	658.2689208984375	967.6884155273438	1285.6142578125	710.7572631835938	170.34814453125	1420.227661132813	670.8250732421875	175.8460235595703	1388.261352539063	707.4108276367188	254.0233001708984	1436.015991210938	666.355224609375	255.5576171875	1401.995239257813	727.3201904296875	598.4925537109375	1432.61474609375	672.4517822265625	599.7978515625	1384.697265625	724.7550659179688	709.2149047851563	1435.232299804688	674.562744140625	709.5664672851563	1388.48583984375	791.6470947265625	423.0189514160156	1375.573120117188	
95	0.6266666666666667	722.7756958007813	98.38682556152344	1045.155151367188	732.1739501953125	111.258674621582	1132.39404296875	859.6813354492188	945.0785522460938	1127.09765625	783.6515502929688	881.9741821289063	1054.7783203125	644.9957885742188	40.45162963867188	1088.121704101563	669.0477294921875	62.33725357055664	1047.287719726563	654.3487548828125	88.02445983886719	1089.033203125	754.3806762695313	444.8922729492188	1027.852661132813	774.7083740234375	1007.268981933594	1065.158081054688	757.8773803710938	504.0942687988281	1032.740600585938	731.5455322265625	481.2572326660156	1164.737182617188	861.174560546875	60.58168792724609	1127.39013671875	865.5586547851563	70.37846374511719	1089.015502929688	828.075927734375	52.86402130126953	1021.779357910156	663.7369995117188	967.2833251953125	1184.037231445313	702.6692504882813	175.2903747558594	1039.589111328125	674.5665283203125	178.8534088134766	1087.687255859375	695.509765625	255.0800018310547	1030.068603515625	669.692626953125	259.2733764648438	1077.740234375	746.4242553710938	586.7551879882813	1030.045288085938	684.4935302734375	592.7559204101563	1068.785888671875	755.3878784179688	696.3330078125	1029.295654296875	696.8265380859375	701.6484985351563	1067.839599609375	802.415283203125	428.3286437988281	1091.711059570313	714.6134643554688	101.1294555664063	1410.879638671875	737.5740966796875	122.5212936401367	1325.983520507813	844.4639282226563	949.4511108398438	1358.72412109375	764.8483276367188	887.8911743164063	1419.469116210938	639.9161987304688	41.41787338256836	1366.137573242188	668.7540283203125	64.84233856201172	1406.467163085938	652.1931762695313	92.22103118896484	1363.437133789063	741.8778686523438	450.2444763183594	1429.912475585938	760.0669555664063	1003.867004394531	1404.233276367188	742.30322265625	513.609619140625	1424.840698242188	729.8723754882813	485.7074890136719	1295.35791015625	855.376220703125	61.3273811340332	1329.25439453125	862.5521850585938	70.76284790039063	1371.734741210938	824.7340087890625	48.59282684326172	1438.972778320313	658.2933959960938	967.6688232421875	1285.642456054688	710.7605590820313	170.3507080078125	1420.231201171875	670.8291625976563	175.8431243896484	1388.263549804688	707.4212036132813	254.0233917236328	1436.01611328125	666.3662719726563	255.5545501708984	1401.98876953125	727.3626098632813	598.49951171875	1432.621704101563	672.4947509765625	599.7972412109375	1384.71533203125	724.8009033203125	709.2154541015625	1435.253662109375	674.603515625	709.5722045898438	1388.515502929688	791.6673583984375	423.0199584960938	1375.584594726563	
96	0.6333333333333334	722.7747802734375	98.39106750488281	1045.152587890625	732.170654296875	111.2554092407227	1132.391235351563	859.6045532226563	944.9117431640625	1126.980590820313	783.6417846679688	881.9579467773438	1054.79150390625	645.0003662109375	40.45209121704102	1088.123291015625	669.0542602539063	62.33306884765625	1047.281860351563	654.3564453125	88.02552795410156	1089.0400390625	754.3905639648438	444.8907165527344	1027.861328125	774.69970703125	1007.275634765625	1065.177490234375	757.883544921875	504.0846862792969	1032.759155273438	731.5548095703125	481.2562561035156	1164.764282226563	861.1698608398438	60.58571624755859	1127.39111328125	865.5598754882813	70.3829345703125	1089.026489257813	828.075927734375	52.86988067626953	1021.777099609375	663.7369995117188	967.267333984375	1184.053100585938	702.6613159179688	175.2941284179688	1039.5908203125	674.5677490234375	178.8580474853516	1087.687255859375	695.5145874023438	255.0770568847656	1030.082153320313	669.69189453125	259.2822875976563	1077.751708984375	746.4527587890625	586.7499389648438	1030.07177734375	684.5062866210938	592.7544555664063	1068.811645507813	755.3893432617188	696.328857421875	1029.325439453125	696.8308715820313	701.6402587890625	1067.877075195313	802.4254150390625	428.3134155273438	1091.738647460938	714.6083374023438	101.115837097168	1410.866943359375	737.580810546875	122.5323486328125	1325.982666015625	844.5075073242188	949.4583740234375	1358.724975585938	764.89111328125	887.8868408203125	1419.487060546875	639.9137573242188	41.42098999023438	1366.132568359375	668.7454223632813	64.85280609130859	1406.463989257813	652.1841430664063	92.22231292724609	1363.43212890625	741.8980712890625	450.2410888671875	1429.924194335938	760.1041259765625	1003.866027832031	1404.24365234375	742.321044921875	513.6022338867188	1424.835571289063	729.909423828125	485.7043762207031	1295.364868164063	855.3721923828125	61.32399368286133	1329.25634765625	862.5470581054688	70.75833129882813	1371.724365234375	824.7379760742188	48.58495330810547	1438.973022460938	658.3208618164063	967.6495971679688	1285.662353515625	710.7637329101563	170.3416595458984	1420.234130859375	670.8367919921875	175.8466796875	1388.263916015625	707.4286499023438	254.0303955078125	1436.021850585938	666.372802734375	255.5598449707031	1401.990844726563	727.3851318359375	598.5014038085938	1432.634765625	672.5240478515625	599.8033447265625	1384.731079101563	724.8277587890625	709.2230224609375	1435.27978515625	674.6361083984375	709.5654907226563	1388.529541015625	791.6895141601563	423.0101318359375	1375.606201171875	
97	0.64	722.78466796875	98.3851318359375	1045.154541015625	732.1655883789063	111.2602157592773	1132.388305664063	859.6736450195313	945.0873413085938	1127.096069335938	783.6292724609375	881.9639892578125	1054.799926757813	644.9992065429688	40.44573974609375	1088.122802734375	669.0416870117188	62.34279251098633	1047.27587890625	654.3515625	88.02960205078125	1089.052124023438	754.3966674804688	444.8908081054688	1027.879150390625	774.6883544921875	1007.275756835938	1065.188598632813	757.8871459960938	504.085205078125	1032.776977539063	731.5636596679688	481.2501220703125	1164.770874023438	861.1769409179688	60.58296585083008	1127.378662109375	865.5646362304688	70.39408111572266	1089.01953125	828.0748291015625	52.86720657348633	1021.77783203125	663.7494506835938	967.241455078125	1184.084594726563	702.6658325195313	175.2957153320313	1039.592895507813	674.56298828125	178.8588562011719	1087.69091796875	695.5183715820313	255.0775299072266	1030.093383789063	669.698486328125	259.27685546875	1077.753051757813	746.4450073242188	586.7339477539063	1030.110717773438	684.5153198242188	592.75048828125	1068.846313476563	755.3908081054688	696.3289794921875	1029.33203125	696.84423828125	701.6434326171875	1067.907592773438	802.4428100585938	428.315673828125	1091.752319335938	714.6060791015625	101.1202087402344	1410.8681640625	737.575439453125	122.5253677368164	1325.97705078125	844.545654296875	949.46826171875	1358.715087890625	764.9331665039063	887.8876953125	1419.487915039063	639.9190063476563	41.41846084594727	1366.12890625	668.752685546875	64.85077667236328	1406.463134765625	652.187744140625	92.22786712646484	1363.431762695313	741.9295654296875	450.2440185546875	1429.921630859375	760.1373291015625	1003.861267089844	1404.251342773438	742.3427734375	513.6041870117188	1424.848510742188	729.9295043945313	485.7095947265625	1295.374755859375	855.3622436523438	61.32327270507813	1329.24560546875	862.5527954101563	70.76405334472656	1371.733154296875	824.7295532226563	48.58702087402344	1438.975219726563	658.3453979492188	967.6388549804688	1285.700439453125	710.7723999023438	170.3499145507813	1420.236206054688	670.83935546875	175.8533630371094	1388.256103515625	707.4420166015625	254.0270233154297	1436.021606445313	666.38525390625	255.5604095458984	1401.990600585938	727.4236450195313	598.50537109375	1432.64111328125	672.5628662109375	599.8017578125	1384.728271484375	724.8657836914063	709.2157592773438	1435.29296875	674.6685180664063	709.5755004882813	1388.536499023438	791.7131958007813	423.0061645507813	1375.605712890625	
